<?xml version="1.0" encoding="utf-8"?>
<!-- Generator: Adobe Illustrator 16.0.0, SVG Export Plug-In . SVG Version: 6.00 Build 0)  -->
<!DOCTYPE svg PUBLIC "-//W3C//DTD SVG 1.1//EN" "http://www.w3.org/Graphics/SVG/1.1/DTD/svg11.dtd">
<svg version="1.1" id="Layer_1" xmlns="http://www.w3.org/2000/svg" xmlns:xlink="http://www.w3.org/1999/xlink" x="0px" y="0px"
	 width="309.329px" height="47.275px" viewBox="0 0 309.329 47.275" enable-background="new 0 0 309.329 47.275"
	 xml:space="preserve">
<g>
	<path d="M27.441,40.013c-0.834,0.566-1.893,1.025-3.175,1.375c-1.284,0.35-2.575,0.525-3.875,0.525c-2.968,0-5.233-0.633-6.8-1.9
		c-1.567-1.267-2.367-3.301-2.4-6.1V22.462h-4.3v-6.05h4.3v-5.6l8.5-2.351v7.95h7.5v6.05h-7.5v10.051c0,2.233,1.1,3.35,3.3,3.35
		c1.366,0,2.566-0.366,3.601-1.1L27.441,40.013z"/>
	<path d="M54.34,18.212c1.566,1.534,2.351,3.718,2.351,6.551v16.65h-8.5V27.112c0-3.166-1.184-4.75-3.551-4.75
		c-1.333,0-2.417,0.483-3.25,1.45c-0.833,0.968-1.25,2.45-1.25,4.45v13.15h-8.5V5.813h8.5v15.149
		c0.733-1.666,1.775-2.925,3.125-3.774c1.351-0.851,2.941-1.275,4.775-1.275C50.673,15.912,52.773,16.68,54.34,18.212z"/>
	<path d="M63.115,12.537c-0.783-0.649-1.175-1.675-1.175-3.075c0-1.433,0.392-2.475,1.175-3.125
		c0.783-0.649,2.042-0.975,3.775-0.975c1.732,0,2.991,0.325,3.775,0.975c0.782,0.65,1.175,1.692,1.175,3.125
		c0,1.4-0.393,2.426-1.175,3.075c-0.784,0.65-2.043,0.976-3.775,0.976C65.157,13.513,63.898,13.188,63.115,12.537z M71.14,41.413
		h-8.5V16.412h8.5V41.413z"/>
	<path d="M99.889,18.212c1.566,1.534,2.351,3.718,2.351,6.551v16.65h-8.5V27.112c0-1.699-0.309-2.908-0.926-3.625
		s-1.492-1.075-2.625-1.075c-1.333,0-2.417,0.476-3.25,1.425c-0.833,0.951-1.25,2.409-1.25,4.375v13.201h-8.5V16.412h7.601l0.25,4.8
		c0.8-1.766,1.933-3.091,3.399-3.975c1.467-0.883,3.184-1.325,5.15-1.325C96.222,15.912,98.322,16.68,99.889,18.212z"/>
	<path d="M120.739,31.163l-4.05,4.5v5.75h-8.5V5.813h8.5v21.101l9.55-10.501h9.4l-9.2,9.8l9.75,15.201h-9.4L120.739,31.163z"/>
	<path d="M161.988,18.212c1.566,1.534,2.35,3.718,2.35,6.551v16.65h-8.5V27.112c0-3.166-1.184-4.75-3.549-4.75
		c-1.334,0-2.418,0.483-3.25,1.45c-0.834,0.968-1.25,2.45-1.25,4.45v13.15h-8.5V5.813h8.5v15.149
		c0.732-1.666,1.776-2.925,3.125-3.774c1.35-0.851,2.941-1.275,4.775-1.275C158.322,15.912,160.422,16.68,161.988,18.212z"/>
	<path d="M195.189,16.412v25.001h-7.602l-0.25-4.65c-1.566,3.434-4.449,5.15-8.648,5.15c-2.668,0-4.76-0.709-6.275-2.125
		c-1.518-1.417-2.275-3.643-2.275-6.676v-16.7h8.5v14.55c0,1.635,0.283,2.784,0.85,3.451c0.566,0.666,1.434,1,2.6,1
		c1.4,0,2.518-0.476,3.352-1.426c0.832-0.949,1.25-2.391,1.25-4.324V16.412H195.189z"/>
	<path d="M240.014,18.212c1.582,1.534,2.375,3.718,2.375,6.551v16.65h-8.5V26.712c0-2.866-1.133-4.3-3.4-4.3
		c-1.334,0-2.4,0.483-3.199,1.45c-0.801,0.967-1.201,2.367-1.201,4.2v13.351h-8.5V26.712c0-2.866-1.133-4.3-3.398-4.3
		c-1.268,0-2.318,0.483-3.15,1.45c-0.834,0.967-1.25,2.418-1.25,4.35v13.201h-8.5V16.412h7.6l0.25,4.8
		c0.801-1.732,1.916-3.05,3.35-3.949c1.434-0.9,3.117-1.351,5.051-1.351c1.9,0,3.541,0.434,4.924,1.3
		c1.383,0.867,2.375,2.117,2.977,3.75c0.799-1.633,1.941-2.883,3.424-3.75c1.482-0.866,3.143-1.3,4.975-1.3
		C236.371,15.912,238.43,16.68,240.014,18.212z"/>
	<path d="M274.039,36.362l-0.65,4.75c-0.967,0.533-2.1,0.801-3.4,0.801c-3.6,0-5.75-1.283-6.449-3.851
		c-1.5,2.567-4.469,3.851-8.9,3.851c-2.5,0-4.418-0.533-5.75-1.601c-1.334-1.066-2-2.616-2-4.649c0-2.133,0.758-3.858,2.275-5.176
		c1.516-1.316,4.008-2.324,7.475-3.025l5.65-1.1v-0.9c0-1.133-0.318-2.032-0.951-2.699s-1.5-1-2.6-1c-1.268,0-2.301,0.3-3.1,0.899
		c-0.801,0.601-1.318,1.584-1.551,2.95l-6.9-2c0.434-2.433,1.633-4.325,3.602-5.675c1.965-1.351,4.615-2.025,7.949-2.025
		c3.9,0,6.867,0.8,8.9,2.4c2.033,1.6,3.049,4,3.049,7.2v9.1c0,1.301,0.602,1.95,1.801,1.95
		C273.121,36.563,273.639,36.496,274.039,36.362z M260.889,35.438c0.932-0.649,1.4-1.508,1.4-2.575v-2.15l-4.051,0.951
		c-1.066,0.267-1.824,0.592-2.275,0.975c-0.449,0.383-0.674,0.925-0.674,1.625c0,0.699,0.215,1.233,0.648,1.6
		c0.434,0.367,1.033,0.551,1.801,0.551C258.904,36.413,259.955,36.087,260.889,35.438z"/>
	<path d="M300.088,18.212c1.566,1.534,2.35,3.718,2.35,6.551v16.65h-8.5V27.112c0-1.699-0.309-2.908-0.924-3.625
		c-0.617-0.717-1.492-1.075-2.625-1.075c-1.334,0-2.418,0.476-3.25,1.425c-0.834,0.951-1.25,2.409-1.25,4.375v13.201h-8.5V16.412
		h7.6l0.25,4.8c0.801-1.766,1.934-3.091,3.4-3.975c1.467-0.883,3.182-1.325,5.15-1.325C296.422,15.912,298.521,16.68,300.088,18.212
		z"/>
</g>
</svg>
